<svg height="427pt" viewBox="0 -1 427.66 427" width="367pt" xmlns="http://www.w3.org/2000/svg"><path d="m420.660156 256.25v35.320312c0 22.089844-17.910156 40-40 40h-333.660156c-22.089844 0-40-17.910156-40-40v-35.320312zm0 0" fill="#FF7465"/><path d="m420.660156 47.328125v208.921875h-413.660156v-208.921875c0-22.089844 17.910156-40 40-40h333.660156c22.089844 0 40 17.910156 40 40zm-51.449218 147.410156-16.871094-95.21875c-.691406-4.390625-4.476563-7.625-8.917969-7.628906h-14.363281v-13.730469c0-16.488281-13.363282-29.855468-29.855469-29.855468-16.488281 0-29.851563 13.367187-29.851563 29.855468v13.730469h-14.351562c-4.449219 0-8.234375 3.234375-8.929688 7.628906l-16.859374 95.21875c-.003907 9.976563 8.082031 18.066407 18.058593 18.0625h103.871094c9.976563.003907 18.070313-8.082031 18.070313-18.0625zm-208.019532-77.558593c0-26.609376-21.574218-48.179688-48.179687-48.179688-26.609375 0-48.183594 21.570312-48.183594 48.179688 0 26.609374 21.574219 48.179687 48.183594 48.179687s48.179687-21.570313 48.179687-48.179687zm0 0" fill="#5C6FFF"/><path d="m269.351562 91.890625h74.070313c4.441406.003906 8.226563 3.238281 8.917969 7.628906l16.871094 95.21875c0 9.980469-8.09375 18.066407-18.070313 18.0625h-103.871094c-9.976562.003907-18.0625-8.085937-18.058593-18.0625l16.859374-95.21875c.695313-4.394531 4.480469-7.628906 8.929688-7.628906zm0 0" fill="#f8ec7d"/><path d="m329.058594 78.160156v13.730469h-59.707032v-13.730469c0-16.488281 13.363282-29.855468 29.851563-29.855468 16.492187 0 29.855469 13.367187 29.855469 29.855468zm0 0" fill="#6fe3ff"/><path d="m113.011719 69c22.433593.003906 41.894531 15.492188 46.933593 37.351562 5.042969 21.863282-5.675781 44.308594-25.847656 54.132813-20.167968 9.824219-44.449218 4.425781-58.554687-13.019531-14.105469-17.445313-14.300781-42.320313-.472657-59.984375 9.132813-11.667969 23.125-18.480469 37.941407-18.480469zm0 0" fill="#6fe3ff"/><g fill="#63316d"><path d="m380.660156.328125h-333.660156c-25.945312.03125-46.9726562 21.054687-47 47v244.242187c.0273438 25.945313 21.054688 46.96875 47 47h159.828125v71.757813h-75.628906c-3.863281 0-7 3.136719-7 7 0 3.867187 3.136719 7 7 7h170.039062c3.867188 0 7-3.132813 7-7 0-3.863281-3.132812-7-7-7h-80.410156v-71.757813h159.832031c25.945313-.03125 46.96875-21.054687 47-47v-244.242187c-.03125-25.945313-21.054687-46.96875-47-47zm-333.660156 14h333.660156c18.214844.023437 32.980469 14.785156 33 33v201.921875h-399.660156v-201.921875c.019531-18.214844 14.785156-32.976563 33-33zm333.660156 310.242187h-333.660156c-18.21875-.019531-32.980469-14.785156-33-33v-28.320312h399.660156v28.320312c-.019531 18.214844-14.785156 32.980469-33 33zm0 0"/><path d="m113.011719 172.359375c25.804687 0 48.160156-17.886719 53.828125-43.0625 5.664062-25.175781-6.871094-50.914063-30.1875-61.972656-23.316406-11.058594-51.183594-4.480469-67.089844 15.835937-13.015625 16.621094-15.40625 39.207032-6.164062 58.183594 9.246093 18.976562 28.503906 31.015625 49.613281 31.015625zm-32.433594-80.558594c12.398437-15.847656 34.429687-20.414062 52.109375-10.804687 17.675781 9.609375 25.820312 30.582031 19.265625 49.605468-6.558594 19.019532-25.898437 30.519532-45.742187 27.195313s-34.378907-20.496094-34.382813-40.617187c-.015625-9.203126 3.066406-18.144532 8.75-25.378907zm0 0"/><path d="m100.007812 132.679688c2.46875 2.886718 6.792969 3.277343 9.738282.878906l26.933594-21.910156c2.96875-2.445313 3.40625-6.835938.976562-9.820313s-6.8125-3.449219-9.8125-1.039063l-21.628906 17.601563-7.132813-8.347656c-2.515625-2.9375-6.933593-3.285157-9.871093-.769531-2.941407 2.511718-3.285157 6.929687-.773438 9.871093zm0 0"/><path d="m64.828125 198.328125h95c3.867187 0 7-3.132813 7-7 0-3.863281-3.132813-7-7-7h-95c-3.863281 0-7 3.136719-7 7 0 3.867187 3.136719 7 7 7zm0 0"/><path d="m64.828125 228.328125h56c3.867187 0 7-3.132813 7-7 0-3.863281-3.132813-7-7-7h-56c-3.863281 0-7 3.136719-7 7 0 3.867187 3.136719 7 7 7zm0 0"/><path d="m247.269531 219.800781h103.871094c13.835937-.011719 25.050781-11.222656 25.070313-25.0625 0-.40625-.035157-.816406-.109376-1.21875l-16.859374-95.164062c-1.226563-7.777344-7.945313-13.496094-15.820313-13.464844h-7.363281v-6.730469c0-20.355468-16.5-36.855468-36.855469-36.855468-20.351563 0-36.851563 16.5-36.851563 36.855468v6.730469h-7.351562c-7.878906-.035156-14.601562 5.683594-15.832031 13.464844l-16.851563 95.164062c-.070312.402344-.105468.8125-.105468 1.21875.015624 13.835938 11.226562 25.046875 25.058593 25.0625zm29.082031-141.640625c0-12.621094 10.230469-22.855468 22.851563-22.855468 12.625 0 22.855469 10.234374 22.855469 22.855468v6.730469h-45.707032zm-23.386718 22.582032c.007812-.046876.011718-.089844.019531-.136719.164063-.984375 1.015625-1.710938 2.015625-1.714844h7.351562v12.699219c0 3.867187 3.132813 7 7 7 3.863282 0 7-3.132813 7-7v-12.699219h45.707032v12.699219c0 3.867187 3.136718 7 7 7 3.867187 0 7-3.132813 7-7v-12.699219h7.363281c.996094.007813 1.84375.730469 2.003906 1.714844.007813.046875.011719.089843.019531.136719l16.75 94.539062c-.296874 5.890625-5.15625 10.511719-11.054687 10.519531h-103.871094c-5.894531-.007812-10.75-4.632812-11.046875-10.519531zm0 0"/></g></svg>